<svg width="32" height="32" viewBox="0 0 32 32" fill="none" xmlns="http://www.w3.org/2000/svg">
<path fill-rule="evenodd" clip-rule="evenodd" d="M32 16C32 24.8366 24.8366 32 16 32C7.16344 32 0 24.8366 0 16C0 7.16344 7.16344 0 16 0C24.8366 0 32 7.16344 32 16ZM10.3999 9.80003C10.3999 9.24775 10.8477 8.80003 11.3999 8.80003H13.3999C13.9522 8.80003 14.3999 9.24775 14.3999 9.80003V22.2C14.3999 22.7523 13.9522 23.2 13.3999 23.2H11.3999C10.8477 23.2 10.3999 22.7523 10.3999 22.2V9.80003ZM18.6001 8.80003C18.0478 8.80003 17.6001 9.24775 17.6001 9.80003V22.2C17.6001 22.7523 18.0478 23.2 18.6001 23.2H20.6001C21.1523 23.2 21.6001 22.7523 21.6001 22.2V9.80003C21.6001 9.24775 21.1523 8.80003 20.6001 8.80003H18.6001Z" fill="white"/>
</svg>
