<svg width="25" height="25" viewBox="0 0 25 25" fill="none" xmlns="http://www.w3.org/2000/svg">
<path fill-rule="evenodd" clip-rule="evenodd" d="M17.4 5.8H6.6C5.60589 5.8 4.8 6.60589 4.8 7.6V14.8C4.8 15.7941 5.60589 16.6 6.6 16.6H8.4V18.4H6.6C4.61177 18.4 3 16.7882 3 14.8V7.6C3 5.61177 4.61177 4 6.6 4H17.4C19.3882 4 21 5.61177 21 7.6V14.8C21 16.7882 19.3882 18.4 17.4 18.4H14.5587L15.6127 19.454C15.9961 19.8374 15.9961 20.4591 15.6127 20.8425C15.2292 21.2259 14.6076 21.2259 14.2242 20.8425L11.4536 18.0719C11.2583 17.8767 11.2583 17.5601 11.4536 17.3648L14.2242 14.5942C14.6076 14.2108 15.2292 14.2108 15.6127 14.5942C15.9961 14.9777 15.9961 15.5993 15.6127 15.9828L14.9954 16.6H17.4C18.3941 16.6 19.2 15.7941 19.2 14.8V7.6C19.2 6.60589 18.3941 5.8 17.4 5.8Z" fill="#FFFDFD"/>
</svg>
