<svg width="19" height="21" viewBox="0 0 19 21" fill="none" xmlns="http://www.w3.org/2000/svg">
<path d="M13.998 13.3367L17.738 17.3578C18.0972 17.7439 18.0856 18.3624 17.7123 18.7336C17.3448 19.099 16.7645 19.0871 16.411 18.7068L12.6682 14.6813C11.396 15.6782 9.96143 16.2269 8.36444 16.3271C7.29733 16.3941 6.26388 16.2431 5.26409 15.874C4.2643 15.505 3.3921 14.9789 2.6475 14.2958C1.9029 13.6126 1.29374 12.7796 0.820036 11.7967C0.346331 10.8138 0.0777606 9.77023 0.0143262 8.66605C-0.0491081 7.56186 0.098116 6.49221 0.455999 5.45709C0.813881 4.42197 1.32333 3.51873 1.98436 2.74736C2.64538 1.97599 3.45111 1.34458 4.40155 0.85311C5.35198 0.361645 6.36073 0.0824202 7.42778 0.0154358C8.49484 -0.0515485 9.52829 0.0994776 10.5281 0.468514C11.528 0.837551 12.4002 1.36364 13.1447 2.04677C13.8893 2.7299 14.4984 3.56292 14.9722 4.54584C15.446 5.52875 15.7145 6.5723 15.7779 7.67649C15.8181 8.37709 15.7729 9.06776 15.6421 9.74851C15.5113 10.4293 15.3061 11.0688 15.0266 11.6672C14.7471 12.2656 14.4042 12.8221 13.998 13.3367ZM8.25429 14.408C9.07116 14.3567 9.84173 14.1421 10.566 13.7642C11.2903 13.3863 11.905 12.9025 12.4103 12.3129C12.9156 11.7233 13.3063 11.0339 13.5822 10.2446C13.8582 9.45539 13.9719 8.63813 13.9234 7.79286C13.8748 6.94759 13.6684 6.15044 13.3041 5.4014C12.9398 4.65235 12.4731 4.01674 11.904 3.49454C11.3348 2.97235 10.6691 2.56896 9.9068 2.28438C9.14448 1.9998 8.35489 1.88315 7.53802 1.93443C6.72115 1.98571 5.95058 2.2003 5.22631 2.5782C4.50204 2.9561 3.88724 3.43989 3.38193 4.02956C2.87661 4.61923 2.48598 5.30865 2.21003 6.09783C1.93409 6.887 1.82038 7.70425 1.86892 8.54958C1.91746 9.39491 2.12387 10.1921 2.48815 10.9411C2.85242 11.69 3.31915 12.3256 3.88834 12.8479C4.45753 13.3701 5.12326 13.7735 5.88551 14.058C6.64777 14.3426 7.43736 14.4592 8.25429 14.408Z" fill="white"/>
</svg>
