<svg width="15" height="14" viewBox="0 0 15 14" fill="none" xmlns="http://www.w3.org/2000/svg">
<path fill-rule="evenodd" clip-rule="evenodd" d="M11.6113 0.22525C11.311 0.525582 11.311 1.01252 11.6113 1.31285L12.0948 1.79634H10.4441C9.42765 1.79634 8.4607 2.26645 7.79138 3.08602L2.07446 10.0863C1.67287 10.5781 1.0927 10.8601 0.482848 10.8601H0V12.3708H0.482848C1.49927 12.3708 2.46622 11.9007 3.13554 11.0811L8.85246 4.08078C9.25405 3.58904 9.83422 3.30697 10.4441 3.30697H12.3362L11.6113 4.03185C11.311 4.33219 11.311 4.81912 11.6113 5.11945C11.9116 5.41979 12.3986 5.41979 12.6989 5.11945L14.7924 3.0259C14.9877 2.83064 14.9877 2.51406 14.7924 2.3188L12.6989 0.225249C12.3986 -0.0750832 11.9116 -0.0750831 11.6113 0.22525ZM0.964945 1.09137C1.94604 1.09137 2.87939 1.54674 3.52545 2.3406L5.25417 4.35156L4.22978 5.32115L2.50125 3.30416C2.11362 2.82784 1.5536 2.55462 0.964945 2.55462H0.000300063V1.09137H0.964945ZM7.98611 9.71162C8.63217 10.5055 9.56551 10.9609 10.5466 10.9609H12.4369L11.6113 11.7864C11.311 12.0868 11.311 12.5737 11.6113 12.874C11.9116 13.1744 12.3986 13.1744 12.6989 12.874L14.7924 10.7805C14.9877 10.5852 14.9877 10.2686 14.7924 10.0734L12.6989 7.97984C12.3986 7.6795 11.9116 7.6795 11.6113 7.97984C11.311 8.28017 11.311 8.76711 11.6113 9.06744L12.0415 9.4976H10.5466C9.95795 9.4976 9.39795 9.22439 9.01031 8.74807L7.75459 7.08356L6.69714 8.141L7.98611 9.71162Z" fill="#BABABA"/>
</svg>
