<svg width="52" height="52" viewBox="0 0 52 52" fill="none" xmlns="http://www.w3.org/2000/svg">
<path d="M26 6C14.9606 6 6 14.9606 6 26C6 37.0633 14.9606 46 26 46C37.0633 46 46 37.0394 46 26C46 14.9606 37.0633 6 26 6ZM35.1517 34.865C34.8172 35.4624 34.0526 35.6296 33.4791 35.2712C28.7479 32.4038 22.8459 31.7587 15.8686 33.3596C15.1995 33.4791 14.5305 33.0729 14.3871 32.4038C14.3393 31.7348 14.7455 31.0657 15.3429 30.9223C22.9892 29.178 29.5842 29.9188 34.8411 33.1446C35.4624 33.503 35.6535 34.2676 35.2712 34.865H35.1517ZM37.6607 29.417C37.1828 30.1338 36.227 30.3728 35.5102 29.9427C30.1338 26.5974 21.9379 25.6416 15.5818 27.601C14.8172 27.8399 13.9092 27.362 13.6703 26.5735C13.4313 25.7849 13.9092 24.9008 14.7694 24.6619C22.0335 22.5114 31.0657 23.5866 37.2306 27.2903C37.9474 27.7682 38.1864 28.724 37.7085 29.4409L37.6607 29.417ZM37.8996 23.73C31.448 19.9068 20.7909 19.5484 14.626 21.4122C13.6703 21.7228 12.6667 21.1732 12.356 20.1697C12.0454 19.2139 12.595 18.1386 13.5986 17.828C20.6714 15.6774 32.4277 16.1075 39.8351 20.5042C40.7192 21.0299 41.0299 22.1768 40.4803 23.0609C40.0024 23.9689 38.8076 24.2557 37.9474 23.73H37.8996Z" fill="white"/>
</svg>
